<?xml version="1.0" encoding="UTF-8" standalone="no"?>
<svg
   viewBox="0 0 10 10"
   xmlns="http://www.w3.org/2000/svg"
   style="fill:#ffff;stroke:#0000;">
    <path
       d="
       M 3,0.5 
       A 2.5,2.5 0,0,0 0.5,3
       V 7 
       A 2.5,2.5 0,0,0 3,9.5
       H 7 
       A 2.5,2.5 0,0,0 9.5,7
       V 3 
       A 2.5,2.5 0,0,0 7,0.5
       Z 
       m 0,1 
       H 7 
       A 1.5,1.5 0,0,1 8.5,3
       V 7 
       A 1.5,1.5 0,0,1 7,8.5
       H 3 
       A 1.5,1.5 0,0,1 1.5,7
       V 3 
       A 1.5,1.5 0,0,1 3,1.5
       Z" />
    <path
      d="
        M 5,2.5
        a 2.5,2.5,0,1,0,0,5
        a 2.5,2.5,0,1,0,0,-5
        M 5,3.5
        a 1.5,1.5,0,1,1,0,3
        a 1.5,1.5,0,1,1,0,-3
        Z
        "/>
  <circle
     cx="7.4"
     cy="2.6"
     r="0.55" />
</svg>
